#!OML:ASF F:\VICON\USERDATA\INSTALL\rory3\rory3.ASF
:FULLY-SPECIFIED
:DEGREES
429
root -0.936332 17.8079 2.35983 12.65 3.82803 6.18055
lowerback 14.6191 2.04239 0.602954
upperback 7.31924 2.99328 9.06497
thorax -0.875466 1.37673 8.88747
lowerneck -6.90394 -11.5957 -9.7152
upperneck 29.4057 -17.2303 8.78504
head 12.537 -7.67168 2.60143
rclavicle 3.49861e-014 4.13472e-014
rhumerus 4.20431 -10.865 -88.9434
rradius 35.1197
rwrist -12.5349
rhand -18.1348 -19.8691
rfingers 7.12502
rthumb 8.14019 -49.6923
lclavicle 3.49861e-014 4.13472e-014
lhumerus -20.4382 -53.6043 100.379
lradius 61.7275
lwrist 74.1505
lhand -22.4514 59.3595
lfingers 7.12502
lthumb 3.97284 449.302
rfemur -35.0859 -0.934695 -2.4989
rtibia 32.0832
rfoot -9.9623 -27.9769
rtoes 25.3108
lfemur -21.5952 -3.56982 -26.9427
ltibia 22.4193
lfoot -9.49914 -7.05858
ltoes -8.87579
430
root -0.892697 17.8002 2.32312 12.7825 3.58476 5.78452
lowerback 14.5942 1.91444 0.450993
upperback 7.24472 2.80233 8.86906
thorax -0.911231 1.28116 8.78845
lowerneck -6.89984 -11.377 -9.32063
upperneck 29.3906 -16.9557 8.67179
head 12.4419 -7.53149 2.54567
rclavicle 4.77083e-015 -9.54166e-014
rhumerus 4.58192 -12.0874 -88.144
rradius 35.1296
rwrist -12.9133
rhand -18.8442 -19.7323
rfingers 7.12502
rthumb 7.45551 -49.5809
lclavicle 4.77083e-015 -9.54166e-014
lhumerus -19.4324 -54.3954 100.381
lradius 61.7176
lwrist 72.6955
lhand -21.7114 58.5859
lfingers 7.12502
lthumb 4.68742 448.514
rfemur -35.6298 -1.39234 -1.83069
rtibia 32.2953
rfoot -8.08597 -26.265
rtoes 22.8521
lfemur -22.2391 -3.56619 -26.6449
ltibia 22.9915
lfoot -9.53517 -6.91996
ltoes -8.062
431
root -0.849071 17.7925 2.28904 12.9481 3.2104 5.47949
lowerback 14.5327 1.81459 0.20681
upperback 7.16014 2.63302 8.60623
thorax -0.942891 1.1955 8.66587
lowerneck -7.00291 -11.1498 -9.09363
upperneck 29.53 -16.7017 8.71317
head 12.471 -7.39138 2.56203
rclavicle -2.06736e-014 -6.67916e-014
rhumerus 4.84778 -13.2456 -87.3503
rradius 35.3016
rwrist -13.0105
rhand -19.5475 -20.0489
rfingers 7.12502
rthumb 6.77663 -49.9204
lclavicle -2.06736e-014 -6.67916e-014
lhumerus -18.421 -55.2756 100.261
lradius 61.9137
lwrist 71.8735
lhand -23.2879 56.0391
lfingers 7.12502
lthumb 3.1651 445.995
rfemur -36.2118 -1.89315 -1.19181
rtibia 32.5507
rfoot -6.99937 -24.1427
rtoes 19.9694
lfemur -22.9108 -3.36327 -26.4983
ltibia 23.6336
lfoot -9.71893 -6.81846
ltoes -7.71798
432
root -0.808215 17.7874 2.25579 13.0484 2.84398 5.16137
lowerback 14.494 1.68967 -0.0905327
upperback 7.13939 2.42224 8.38805
thorax -0.9156 1.08503 8.63289
lowerneck -7.34744 -10.9204 -9.11229
upperneck 29.8975 -16.447 8.84975
head 12.681 -7.24926 2.63806
rclavicle -4.13472e-014 -6.04305e-014
rhumerus 5.18157 -14.3297 -86.5394
rradius 35.4198
rwrist -12.9901
rhand -20.227 -21.0328
rfingers 7.12502
rthumb 6.12071 -50.9244
lclavicle -4.13472e-014 -6.04305e-014
lhumerus -17.1999 -56.1657 99.9381
lradius 62.5134
lwrist 71.9557
lhand -24.398 55.1654
lfingers 7.12502
lthumb 2.09294 445.135
rfemur -36.6847 -2.42439 -0.467784
rtibia 32.8099
rfoot -6.51158 -21.983
rtoes 17.551
lfemur -23.4845 -3.1235 -26.3386
ltibia 24.3219
lfoot -9.98632 -6.71272
ltoes -7.85151
433
root -0.770815 17.7838 2.22096 13.1222 2.53641 4.77149
lowerback 14.4514 1.56462 -0.336706
upperback 7.14575 2.21796 8.2272
thorax -0.857738 0.976986 8.63312
lowerneck -7.58146 -10.6835 -9.09064
upperneck 30.1363 -16.1498 8.89913
head 12.7969 -7.10263 2.6899
rclavicle -3.49861e-014 -1.27222e-014
rhumerus 5.58716 -15.3815 -85.6386
rradius 35.3603
rwrist -13.1169
rhand -21.1176 -21.3468
rfingers 7.12502
rthumb 5.26081 -51.2615
lclavicle -3.49861e-014 -1.27222e-014
lhumerus -15.9893 -57.1451 99.6397
lradius 62.6057
lwrist 70.3173
lhand -22.9641 54.2159
lfingers 7.12502
lthumb 3.4778 444.167
rfemur -37.1113 -2.83334 0.343007
rtibia 33.0499
rfoot -6.50901 -19.9096
rtoes 15.6346
lfemur -24.0669 -2.97106 -26.0632
ltibia 25.0505
lfoot -10.2553 -6.51964
ltoes -8.03805
434
root -0.734152 17.7773 2.18454 13.235 2.3495 4.36506
lowerback 14.3465 1.40645 -0.469911
upperback 7.159 1.98198 8.06314
thorax -0.750562 0.85445 8.56837
lowerneck -7.60016 -10.4466 -9.10171
upperneck 30.067 -15.8662 9.09725
head 12.7594 -6.96707 2.81177
rclavicle -5.08889e-014 -3.81667e-014
rhumerus 6.13943 -16.6687 -84.865
rradius 35.1134
rwrist -13.2425
rhand -22.4226 -20.5385
rfingers 7.12502
rthumb 4.00071 -50.4807
lclavicle -5.08889e-014 -3.81667e-014
lhumerus -14.6233 -58.3281 99.1565
lradius 62.8373
lwrist 69.6129
lhand -21.6367 53.8915
lfingers 7.12502
lthumb 4.75959 443.818
rfemur -37.5143 -3.29439 1.20428
rtibia 33.2637
rfoot -6.82438 -17.903
rtoes 13.4975
lfemur -24.712 -2.88149 -25.7404
ltibia 25.7816
lfoot -10.474 -6.42937
ltoes -8.07484
435
root -0.699307 17.7648 2.14756 13.3693 2.32889 4.01308
lowerback 14.3051 1.19534 -0.548479
upperback 7.14171 1.68784 7.86894
thorax -0.699238 0.706536 8.44566
lowerneck -7.5793 -10.2348 -9.04717
upperneck 29.9224 -15.6268 9.30564
head 12.6815 -6.84636 2.92107
rclavicle 0 3.02153e-014
rhumerus 6.7018 -18.097 -84.1817
rradius 34.9162
rwrist -13.162
rhand -23.4877 -20.0673
rfingers 7.12502
rthumb 2.97214 -50.0264
lclavicle 0 3.02153e-014
lhumerus -12.7051 -59.5185 98.1178
lradius 63.121
lwrist 69.8649
lhand -19.937 54.9404
lfingers 7.12502
lthumb 6.4006 444.824
rfemur -37.809 -3.71065 1.97102
rtibia 33.4708
rfoot -7.58069 -16.2745
rtoes 12.6272
lfemur -25.3605 -2.90087 -25.4395
ltibia 26.4448
lfoot -10.6612 -6.46272
ltoes -8.09838
436
root -0.66667 17.7547 2.11201 13.552 2.3119 3.68291
lowerback 14.2229 1.00048 -0.659135
upperback 7.08181 1.41319 7.69028
thorax -0.676398 0.569205 8.35525
lowerneck -7.54208 -10.0221 -8.98489
upperneck 29.8496 -15.3631 9.4066
head 12.6151 -6.72379 2.99349
rclavicle -2.22639e-014 -4.29375e-014
rhumerus 7.0788 -19.45 -83.3633
rradius 34.8697
rwrist -12.9753
rhand -24.1565 -19.8482
rfingers 7.12502
rthumb 2.32618 -49.8153
lclavicle -2.22639e-014 -4.29375e-014
lhumerus -10.9474 -60.4775 97.1757
lradius 63.5474
lwrist 70.2093
lhand -18.5553 55.6172
lfingers 7.12502
lthumb 7.73436 445.456
rfemur -38.1151 -4.07232 2.70675
rtibia 33.6957
rfoot -8.2935 -15.1112
rtoes 11.9281
lfemur -26.0115 -2.96283 -25.1454
ltibia 27.0235
lfoot -10.7934 -6.48882
ltoes -8.11713
437
root -0.635638 17.7508 2.077 13.7137 2.31672 3.38387
lowerback 14.1452 0.820372 -0.804427
upperback 7.02166 1.1548 7.53206
thorax -0.659849 0.43925 8.30494
lowerneck -7.66297 -9.81937 -8.99831
upperneck 29.9973 -15.1159 9.50106
head 12.6819 -6.60388 3.06696
rclavicle 5.24792e-014 1.1609e-013
rhumerus 7.45825 -20.9547 -82.589
rradius 34.8394
rwrist -12.6799
rhand -24.865 -19.5318
rfingers 7.12502
rthumb 1.64199 -49.5052
lclavicle 5.24792e-014 1.1609e-013
lhumerus -9.32243 -61.3777 96.3181
lradius 64.0958
lwrist 70.6083
lhand -17.8156 55.6254
lfingers 7.12502
lthumb 8.44831 445.436
rfemur -38.3805 -4.48981 3.43629
rtibia 33.9586
rfoot -8.9547 -14.2494
rtoes 10.1059
lfemur -26.571 -2.98137 -24.8831
ltibia 27.5042
lfoot -10.8652 -6.61601
ltoes -7.94626
438
root -0.60766 17.7495 2.04187 13.8148 2.44987 3.11426
lowerback 14.1481 0.606794 -0.936241
upperback 6.97998 0.856741 7.39562
thorax -0.660649 0.289558 8.27716
lowerneck -7.91124 -9.61211 -8.99601
upperneck 30.2683 -14.8523 9.53179
head 12.8173 -6.47363 3.11219
rclavicle 2.22639e-014 4.13472e-014
rhumerus 7.90424 -22.4343 -81.8665
rradius 34.7902
rwrist -12.4651
rhand -25.7186 -19.9108
rfingers 7.12502
rthumb 0.817482 -49.889
lclavicle 2.22639e-014 4.13472e-014
lhumerus -7.51981 -62.1848 95.2726
lradius 64.683
lwrist 71.1969
lhand -17.625 55.2295
lfingers 7.12502
lthumb 8.63223 445.033
rfemur -38.5069 -4.79589 4.0787
rtibia 34.2439
rfoot -9.80848 -13.8218
rtoes 8.63834
lfemur -27.0224 -2.96459 -24.6435
ltibia 27.872
lfoot -10.8501 -6.92761
ltoes -7.44253
439
root -0.585235 17.7462 2.00589 13.8675 2.63895 2.85424
lowerback 14.2581 0.378004 -1.11982
upperback 6.90824 0.538415 7.30712
thorax -0.747284 0.130591 8.33738
lowerneck -8.09307 -9.39883 -9.00579
upperneck 30.5713 -14.5319 9.39888
head 12.931 -6.34006 3.11026
rclavicle 0 6.36111e-014
rhumerus 8.22765 -23.6909 -81.0301
rradius 34.7325
rwrist -12.2716
rhand -26.594 -20.3788
rfingers 7.12502
rthumb -0.0280043 -50.3586
lclavicle 0 6.36111e-014
lhumerus -5.9458 -62.9219 94.4149
lradius 65.3071
lwrist 71.8004
lhand -17.4908 54.8699
lfingers 7.12502
lthumb 8.76179 444.668
rfemur -38.5735 -4.99811 4.69731
rtibia 34.5477
rfoot -10.7021 -13.9272
rtoes 8.68004
lfemur -27.3971 -3.02168 -24.3687
ltibia 28.1518
lfoot -10.7815 -7.25212
ltoes -6.59095
440
root -0.562428 17.7443 1.97355 13.9751 2.68855 2.66311
lowerback 14.3151 0.235863 -1.36854
upperback 6.8004 0.324351 7.18701
thorax -0.859279 0.0247152 8.385
lowerneck -8.15182 -9.22355 -8.98597
upperneck 30.7694 -14.2615 9.25697
head 12.9781 -6.23346 3.09629
rclavicle -3.18055e-015 1.11319e-014
rhumerus 8.42487 -24.944 -80.093
rradius 34.6294
rwrist -11.9434
rhand -27.4948 -20.4987
rfingers 7.12502
rthumb -0.897996 -50.4766
lclavicle -3.18055e-015 1.11319e-014
lhumerus -4.51743 -63.7655 93.6918
lradius 65.9105
lwrist 72.2777
lhand -16.9854 54.6849
lfingers 7.12502
lthumb 9.24944 444.462
rfemur -38.7061 -5.11815 5.21717
rtibia 34.8498
rfoot -11.6883 -14.341
rtoes 9.30454
lfemur -27.7595 -3.07481 -24.1702
ltibia 28.3685
lfoot -10.6769 -7.46122
ltoes -5.62973
441
root -0.536785 17.7431 1.94532 14.1397 2.67757 2.47115
lowerback 14.226 0.137616 -1.49197
upperback 6.74636 0.175149 7.01387
thorax -0.846564 -0.0493169 8.28742
lowerneck -8.26861 -9.0921 -9.01519
upperneck 30.867 -14.1113 9.37329
head 13.0393 -6.1559 3.16661
rclavicle 0 5.88403e-014
rhumerus 8.68454 -26.2693 -79.2105
rradius 34.4953
rwrist -11.5351
rhand -28.5172 -20.9549
rfingers 7.12502
rthumb -1.88542 -50.9264
lclavicle 0 5.88403e-014
lhumerus -2.87558 -64.5502 92.7507
lradius 66.4571
lwrist 72.44
lhand -16.4214 54.8077
lfingers 7.12502
lthumb 9.79362 444.56
rfemur -38.8596 -5.21596 5.70507
rtibia 35.1438
rfoot -12.9206 -14.9633
rtoes 9.66584
lfemur -28.131 -3.05082 -24.0156
ltibia 28.5306
lfoot -10.575 -7.63612
ltoes -4.99181
442
root -0.5139 17.7464 1.9173 14.2383 2.68314 2.26192
lowerback 14.1363 0.0380187 -1.56876
upperback 6.77476 0.0258144 6.82407
thorax -0.746635 -0.1263 8.14355
lowerneck -8.54301 -8.99184 -9.01253
upperneck 30.9974 -14.0198 9.52806
head 13.1564 -6.0892 3.23087
rclavicle 1.59028e-014 6.04305e-014
rhumerus 9.07452 -27.7124 -78.5215
rradius 34.2852
rwrist -10.8957
rhand -29.0767 -20.8403
rfingers 7.12502
rthumb -2.42582 -50.8063
lclavicle 1.59028e-014 6.04305e-014
lhumerus -1.11256 -65.2226 91.6133
lradius 66.972
lwrist 72.3614
lhand -16.1386 54.8078
lfingers 7.12502
lthumb 10.0665 444.547
rfemur -38.9209 -5.28902 6.20369
rtibia 35.4537
rfoot -14.3209 -15.6935
rtoes 10.0814
lfemur -28.4008 -2.88449 -23.8678
ltibia 28.6624
lfoot -10.5943 -7.98043
ltoes -4.77931
443
root -0.497642 17.7496 1.89124 14.2363 2.68253 2.07588
lowerback 14.1766 -0.0348512 -1.76662
upperback 6.80703 -0.09895 6.6906
thorax -0.714301 -0.192932 8.13212
lowerneck -8.78895 -8.88895 -8.95445
upperneck 31.1515 -13.8733 9.47854
head 13.2468 -6.01532 3.2175
rclavicle 0 4.45278e-014
rhumerus 9.47378 -29.1211 -77.8225
rradius 34.0134
rwrist -10.2471
rhand -29.3795 -20.3681
rfingers 7.12502
rthumb -2.71818 -50.3306
lclavicle 0 4.45278e-014
lhumerus 0.50502 -65.842 90.5889
lradius 67.5608
lwrist 72.4014
lhand -15.9955 54.8701
lfingers 7.12502
lthumb 10.2045 444.603
rfemur -38.8811 -5.38886 6.74017
rtibia 35.7851
rfoot -15.6395 -16.4425
rtoes 10.2565
lfemur -28.5289 -2.54648 -23.7546
ltibia 28.7485
lfoot -10.7131 -8.49437
ltoes -5.07058
